<?xml version="1.0" encoding="utf-8"?>
<!-- Generator: Adobe Illustrator 15.1.0, SVG Export Plug-In . SVG Version: 6.00 Build 0)  -->
<!DOCTYPE svg PUBLIC "-//W3C//DTD SVG 1.1//EN" "http://www.w3.org/Graphics/SVG/1.1/DTD/svg11.dtd">
<svg version="1.1"
	 id="svg2" xmlns:sodipodi="http://sodipodi.sourceforge.net/DTD/sodipodi-0.dtd" inkscape:version="0.48.1 r9760" xmlns:cc="http://creativecommons.org/ns#" xmlns:svg="http://www.w3.org/2000/svg" xmlns:dc="http://purl.org/dc/elements/1.1/" xmlns:rdf="http://www.w3.org/1999/02/22-rdf-syntax-ns#" sodipodi:docname="npm.svg" xmlns:inkscape="http://www.inkscape.org/namespaces/inkscape"
	 xmlns="http://www.w3.org/2000/svg" xmlns:xlink="http://www.w3.org/1999/xlink" x="0px" y="0px" width="197.18px"
	 height="31.284px" viewBox="0 0 197.18 31.284" enable-background="new 0 0 197.18 31.284" xml:space="preserve">
<sodipodi:namedview  pagecolor="#ffffff" fit-margin-bottom="0" inkscape:window-width="1440" fit-margin-right="0" id="base" bordercolor="#666666" inkscape:window-height="827" inkscape:zoom="1" inkscape:pageopacity="0.0" borderopacity="1.0" inkscape:cy="127.36086" inkscape:pageshadow="2" inkscape:current-layer="layer1" showgrid="false" fit-margin-top="0" fit-margin-left="0" inkscape:cx="128.62279" inkscape:document-units="px" inkscape:window-x="0" inkscape:window-y="25" inkscape:window-maximized="1">
	</sodipodi:namedview>
<g id="layer1" transform="translate(-109.57142,-485.2193)" inkscape:label="Camada 1" inkscape:groupmode="layer">
	<path id="path4951" fill="#CB3837" d="M129.057,512.553v-3.911h-19.485v-23.423h70.093v23.423h-35.046v3.911H129.057z"/>
	<path id="path4949" fill="#FFFFFF" d="M140.829,508.642v-3.938h7.712v-15.548h-15.534v19.485H140.829z"/>
	<path id="path4947" fill="#CB3837" d="M140.829,493.067h3.789v7.713h-3.789V493.067z"/>
	<path id="path4945" fill="#FFFFFF" d="M121.209,504.705v-11.637h3.924v11.637h3.924v-15.548h-15.533v15.548H121.209z"/>
	<path id="path2998" fill="#FFFFFF" d="M160.179,504.705v-11.637h3.924v11.637h3.924v-11.637h3.924v11.637h3.924v-15.548h-23.409
		v15.548H160.179z"/>
</g>
<g>
	<path fill="#C60A0B" d="M78.302,10.675h4.043c1.842,0,3.18,0.262,4.012,0.786c0.833,0.524,1.249,1.358,1.249,2.502
		c0,0.776-0.182,1.413-0.546,1.911c-0.364,0.498-0.849,0.797-1.453,0.897v0.089c0.824,0.184,1.417,0.527,1.782,1.031
		s0.547,1.173,0.547,2.008c0,1.185-0.428,2.109-1.284,2.773c-0.856,0.664-2.019,0.995-3.488,0.995h-4.861V10.675z M81.057,15.82h1.6
		c0.747,0,1.287-0.115,1.622-0.346c0.335-0.231,0.502-0.613,0.502-1.146c0-0.498-0.183-0.854-0.547-1.071s-0.94-0.325-1.729-0.325
		h-1.448V15.82z M81.057,18.006v3.386h1.795c0.758,0,1.318-0.145,1.68-0.436c0.361-0.29,0.542-0.734,0.542-1.333
		c0-1.078-0.77-1.617-2.311-1.617H81.057z"/>
	<path fill="#C60A0B" d="M94.574,16.024l2.71-5.35h2.968l-4.31,7.936v5.057h-2.737v-4.968l-4.31-8.024h2.986L94.574,16.024z"/>
	<path fill="#C60A0B" d="M120.168,23.667h-3.502l-5.652-9.829h-0.08c0.113,1.736,0.169,2.974,0.169,3.714v6.114h-2.461V10.675h3.475
		l5.644,9.731h0.062c-0.09-1.688-0.135-2.882-0.135-3.582v-6.149h2.48V23.667z"/>
	<path fill="#C60A0B" d="M134.013,10.675v8.407c0,0.959-0.215,1.801-0.644,2.524c-0.43,0.723-1.051,1.276-1.862,1.662
		s-1.771,0.578-2.879,0.578c-1.671,0-2.969-0.428-3.893-1.284c-0.924-0.856-1.387-2.027-1.387-3.515v-8.371h2.746v7.954
		c0,1.001,0.201,1.736,0.604,2.204c0.403,0.468,1.069,0.702,2,0.702c0.9,0,1.554-0.235,1.959-0.707
		c0.406-0.471,0.608-1.21,0.608-2.217v-7.936H134.013z"/>
	<path fill="#C60A0B" d="M142.695,23.667l-3.128-10.193h-0.08c0.112,2.073,0.169,3.457,0.169,4.15v6.043h-2.462V10.675h3.751
		l3.074,9.935h0.054l3.261-9.935h3.751v12.992h-2.568v-6.149c0-0.291,0.004-0.625,0.013-1.004c0.01-0.379,0.049-1.386,0.12-3.021
		h-0.08l-3.35,10.175H142.695z"/>
	<path fill="#C60A0B" d="M154.354,10.675h4.044c1.843,0,3.18,0.262,4.013,0.786c0.832,0.524,1.248,1.358,1.248,2.502
		c0,0.776-0.182,1.413-0.547,1.911c-0.364,0.498-0.849,0.797-1.452,0.897v0.089c0.823,0.184,1.417,0.527,1.781,1.031
		s0.547,1.173,0.547,2.008c0,1.185-0.429,2.109-1.284,2.773c-0.856,0.664-2.019,0.995-3.488,0.995h-4.861V10.675z M157.109,15.82
		h1.6c0.747,0,1.287-0.115,1.622-0.346c0.335-0.231,0.502-0.613,0.502-1.146c0-0.498-0.182-0.854-0.546-1.071
		s-0.941-0.325-1.729-0.325h-1.449V15.82z M157.109,18.006v3.386h1.796c0.758,0,1.317-0.145,1.679-0.436
		c0.361-0.29,0.543-0.734,0.543-1.333c0-1.078-0.771-1.617-2.311-1.617H157.109z"/>
	<path fill="#C60A0B" d="M174.065,23.667h-7.483V10.675h7.483v2.257h-4.729v2.853h4.399v2.257h-4.399v3.351h4.729V23.667z"/>
	<path fill="#C60A0B" d="M179.53,18.682v4.985h-2.755V10.675h3.786c1.766,0,3.071,0.321,3.919,0.964
		c0.848,0.643,1.271,1.619,1.271,2.928c0,0.764-0.21,1.444-0.631,2.04c-0.421,0.596-1.016,1.062-1.786,1.4
		c1.955,2.92,3.229,4.808,3.821,5.661h-3.057l-3.102-4.985H179.53z M179.53,16.442h0.889c0.871,0,1.514-0.145,1.929-0.435
		c0.415-0.291,0.622-0.747,0.622-1.369c0-0.616-0.212-1.055-0.636-1.315c-0.423-0.261-1.079-0.391-1.968-0.391h-0.836V16.442z"/>
	<path fill="#C60A0B" d="M196.46,20.059c0,1.173-0.423,2.097-1.267,2.772c-0.845,0.675-2.019,1.013-3.523,1.013
		c-1.387,0-2.613-0.261-3.68-0.782v-2.559c0.877,0.391,1.619,0.667,2.227,0.826c0.607,0.16,1.162,0.24,1.666,0.24
		c0.604,0,1.068-0.116,1.391-0.347c0.323-0.231,0.484-0.575,0.484-1.031c0-0.255-0.071-0.481-0.213-0.68
		c-0.143-0.199-0.352-0.39-0.627-0.573s-0.837-0.477-1.684-0.88c-0.794-0.374-1.39-0.732-1.786-1.075
		c-0.397-0.344-0.714-0.744-0.951-1.2c-0.237-0.457-0.355-0.99-0.355-1.6c0-1.149,0.39-2.053,1.169-2.71
		c0.778-0.658,1.855-0.987,3.23-0.987c0.675,0,1.319,0.08,1.933,0.24c0.613,0.16,1.254,0.385,1.924,0.675l-0.889,2.142
		c-0.693-0.284-1.267-0.483-1.72-0.595c-0.453-0.113-0.899-0.169-1.337-0.169c-0.521,0-0.922,0.122-1.2,0.364
		c-0.278,0.243-0.418,0.56-0.418,0.951c0,0.243,0.057,0.455,0.169,0.635s0.292,0.355,0.538,0.524s0.828,0.472,1.746,0.911
		c1.215,0.581,2.047,1.163,2.497,1.747S196.46,19.212,196.46,20.059z"/>
</g>
</svg>
